#define light_off_width 11
#define light_off_height 11
static  char light_off_bits[] = {
   0xf8, 0x00, 0x04, 0x01, 0x72, 0x02, 0x89, 0x04, 0x25, 0x05, 0x75, 0x05,
   0x25, 0x05, 0x89, 0x04, 0x72, 0x02, 0x04, 0x01, 0xf8, 0x00};
