#define light_on_width 11
#define light_on_height 11
static unsigned char light_on_bits[] = {
   0xf8, 0x00, 0xfc, 0x01, 0xfe, 0x03, 0xff, 0x07, 0xff, 0x07, 0xff, 0x07,
   0xff, 0x07, 0xff, 0x07, 0xfe, 0x03, 0xfc, 0x01, 0xf8, 0x00};
