#define light_width 30
#define light_height 70
static unsigned char light_bits[] = {
   0x00, 0x00, 0x00, 0x00, 0x00, 0x00, 0x00, 0x00, 0x00, 0x00, 0x00, 0x00,
   0x00, 0x00, 0x00, 0x00, 0x00, 0x00, 0x00, 0x00, 0x00, 0x00, 0x00, 0x00,
   0x00, 0x00, 0x00, 0x00, 0x00, 0xff, 0x7f, 0x00, 0x80, 0xaa, 0xaa, 0x00,
   0x80, 0x15, 0xd4, 0x00, 0x80, 0x02, 0xa0, 0x00, 0x80, 0x09, 0xc8, 0x00,
   0x80, 0x12, 0xa4, 0x00, 0x80, 0x21, 0xc2, 0x00, 0x80, 0x40, 0x81, 0x00,
   0x80, 0x81, 0xc0, 0x00, 0x80, 0x40, 0x81, 0x00, 0x80, 0x21, 0xc2, 0x00,
   0x80, 0x12, 0xa4, 0x00, 0x80, 0x09, 0xc8, 0x00, 0x80, 0x02, 0xa0, 0x00,
   0x80, 0x15, 0xd4, 0x00, 0x80, 0xaa, 0xaa, 0x00, 0x80, 0x15, 0xd4, 0x00,
   0x80, 0x02, 0xa0, 0x00, 0x80, 0x09, 0xc8, 0x00, 0x80, 0x12, 0xa4, 0x00,
   0x80, 0x21, 0xc2, 0x00, 0x80, 0x40, 0x81, 0x00, 0x80, 0x81, 0xc0, 0x00,
   0x80, 0x40, 0x81, 0x00, 0x80, 0x21, 0xc2, 0x00, 0x80, 0x12, 0xa4, 0x00,
   0x80, 0x09, 0xc8, 0x00, 0x80, 0x02, 0xa0, 0x00, 0x80, 0x15, 0xd4, 0x00,
   0x80, 0xaa, 0xaa, 0x00, 0x00, 0xff, 0x7f, 0x00, 0x00, 0xf8, 0x0f, 0x00,
   0x00, 0xc0, 0x01, 0x00, 0x00, 0xc0, 0x01, 0x00, 0x00, 0xc0, 0x01, 0x00,
   0x00, 0xc0, 0x01, 0x00, 0x00, 0xc0, 0x01, 0x00, 0x00, 0xc0, 0x01, 0x00,
   0x00, 0xc0, 0x01, 0x00, 0x00, 0xc0, 0x01, 0x00, 0x00, 0xc0, 0x01, 0x00,
   0x00, 0xc0, 0x01, 0x00, 0x00, 0xc0, 0x01, 0x00, 0x00, 0xc0, 0x01, 0x00,
   0x00, 0xc0, 0x01, 0x00, 0x00, 0xc0, 0x01, 0x00, 0x00, 0xc0, 0x01, 0x00,
   0x00, 0xc0, 0x01, 0x00, 0x00, 0xc0, 0x01, 0x00, 0x00, 0xc0, 0x01, 0x00,
   0x00, 0xc0, 0x01, 0x00, 0x00, 0xc0, 0x01, 0x00, 0x00, 0xc0, 0x01, 0x00,
   0x00, 0xc0, 0x01, 0x00, 0x00, 0xc0, 0x01, 0x00, 0x00, 0xc0, 0x01, 0x00,
   0x00, 0xc0, 0x01, 0x00, 0x00, 0xc0, 0x01, 0x00, 0x00, 0xc0, 0x01, 0x00,
   0x00, 0xc0, 0x01, 0x00, 0x00, 0xe0, 0x03, 0x00, 0x00, 0xfc, 0x1f, 0x00,
   0x00, 0xff, 0x7f, 0x00};
